<mxfile>
    <diagram id="DBpwtZIIN34H__V5ttwg" name="Page-1">
        <mxGraphModel dx="421" dy="595" grid="1" gridSize="10" guides="1" tooltips="1" connect="1" arrows="1" fold="1" page="1" pageScale="1" pageWidth="850" pageHeight="1100" math="0" shadow="0">
            <root>
                <mxCell id="0"/>
                <mxCell id="1" parent="0"/>
                <mxCell id="2" value="Pipeline (Modules)" style="swimlane;html=1;startSize=20;horizontal=1;containerType=tree;" vertex="1" parent="1">
                    <mxGeometry x="10" y="10" width="360" height="390" as="geometry"/>
                </mxCell>
                <mxCell id="15" style="edgeStyle=orthogonalEdgeStyle;rounded=0;orthogonalLoop=1;jettySize=auto;html=1;exitX=0.5;exitY=1;exitDx=0;exitDy=0;entryX=0.5;entryY=0;entryDx=0;entryDy=0;endArrow=classicThin;endFill=1;" edge="1" parent="2" source="6" target="7">
                    <mxGeometry relative="1" as="geometry"/>
                </mxCell>
                <mxCell id="6" value="InputHandling" style="html=1;" vertex="1" parent="2">
                    <mxGeometry x="205" y="66" width="110" height="50" as="geometry"/>
                </mxCell>
                <mxCell id="13" style="edgeStyle=orthogonalEdgeStyle;rounded=0;orthogonalLoop=1;jettySize=auto;html=1;exitX=0;exitY=0.5;exitDx=0;exitDy=0;endArrow=none;endFill=0;dashed=1;" edge="1" parent="2" source="7">
                    <mxGeometry relative="1" as="geometry">
                        <mxPoint x="150" y="215" as="targetPoint"/>
                    </mxGeometry>
                </mxCell>
                <mxCell id="16" style="edgeStyle=orthogonalEdgeStyle;rounded=0;orthogonalLoop=1;jettySize=auto;html=1;exitX=0.5;exitY=1;exitDx=0;exitDy=0;entryX=0.5;entryY=0;entryDx=0;entryDy=0;endArrow=classicThin;endFill=1;" edge="1" parent="2" source="7" target="8">
                    <mxGeometry relative="1" as="geometry"/>
                </mxCell>
                <mxCell id="7" value="Behaviour" style="html=1;" vertex="1" parent="2">
                    <mxGeometry x="205" y="190" width="110" height="50" as="geometry"/>
                </mxCell>
                <mxCell id="18" style="edgeStyle=orthogonalEdgeStyle;rounded=0;orthogonalLoop=1;jettySize=auto;html=1;exitX=0.5;exitY=1;exitDx=0;exitDy=0;entryX=0.5;entryY=0;entryDx=0;entryDy=0;endArrow=classicThin;endFill=1;" edge="1" parent="2" source="8" target="6">
                    <mxGeometry relative="1" as="geometry">
                        <Array as="points">
                            <mxPoint x="260" y="370"/>
                            <mxPoint x="335" y="370"/>
                            <mxPoint x="335" y="50"/>
                            <mxPoint x="260" y="50"/>
                        </Array>
                    </mxGeometry>
                </mxCell>
                <mxCell id="19" value="onAnimationFrame" style="edgeLabel;html=1;align=center;verticalAlign=middle;resizable=0;points=[];" vertex="1" connectable="0" parent="18">
                    <mxGeometry x="0.176" relative="1" as="geometry">
                        <mxPoint x="-35" y="-125" as="offset"/>
                    </mxGeometry>
                </mxCell>
                <mxCell id="34" style="edgeStyle=orthogonalEdgeStyle;rounded=0;orthogonalLoop=1;jettySize=auto;html=1;exitX=0;exitY=0.5;exitDx=0;exitDy=0;endArrow=none;endFill=0;dashed=1;" edge="1" parent="2" source="8" target="14">
                    <mxGeometry relative="1" as="geometry"/>
                </mxCell>
                <mxCell id="8" value="Renderer" style="html=1;" vertex="1" parent="2">
                    <mxGeometry x="205" y="306" width="110" height="50" as="geometry"/>
                </mxCell>
                <mxCell id="10" style="edgeStyle=orthogonalEdgeStyle;rounded=0;orthogonalLoop=1;jettySize=auto;html=1;exitX=0;exitY=0;exitDx=35;exitDy=0;exitPerimeter=0;entryX=0;entryY=0.5;entryDx=0;entryDy=0;endArrow=none;endFill=0;dashed=1;" edge="1" parent="2" source="9" target="6">
                    <mxGeometry relative="1" as="geometry"/>
                </mxCell>
                <mxCell id="9" value="Contains event&lt;br&gt;buffers for different&lt;br&gt;input that any object&lt;br&gt;may hook into." style="verticalAlign=top;align=left;spacingTop=8;spacingLeft=2;spacingRight=12;shape=cube;size=10;direction=south;fontStyle=4;html=1;" vertex="1" parent="2">
                    <mxGeometry x="20" y="56" width="130" height="80" as="geometry"/>
                </mxCell>
                <mxCell id="11" value="Runs object&lt;br&gt;behaviours that&lt;br&gt;each frame." style="verticalAlign=top;align=left;spacingTop=8;spacingLeft=2;spacingRight=12;shape=cube;size=10;direction=south;fontStyle=4;html=1;" vertex="1" parent="2">
                    <mxGeometry x="20" y="174" width="130" height="80" as="geometry"/>
                </mxCell>
                <mxCell id="14" value="Runs each objects&lt;br&gt;draw method each&lt;br&gt;frame." style="verticalAlign=top;align=left;spacingTop=8;spacingLeft=2;spacingRight=12;shape=cube;size=10;direction=south;fontStyle=4;html=1;" vertex="1" parent="2">
                    <mxGeometry x="20" y="291" width="130" height="80" as="geometry"/>
                </mxCell>
                <mxCell id="20" value="Objects (Components)" style="swimlane;html=1;startSize=20;horizontal=1;containerType=tree;" vertex="1" parent="1">
                    <mxGeometry x="480" y="10" width="360" height="390" as="geometry"/>
                </mxCell>
                <mxCell id="35" value="EVENT FUNCTIONS&lt;br&gt;Functions to be&lt;br&gt;added to the input&lt;br&gt;handler." style="html=1;" vertex="1" parent="20">
                    <mxGeometry x="30" y="59" width="120" height="64" as="geometry"/>
                </mxCell>
                <mxCell id="36" value="STEP(deltatime)&lt;br&gt;Called by the&lt;br&gt;behaviour module.&lt;br&gt;Recieves deltatime." style="html=1;" vertex="1" parent="20">
                    <mxGeometry x="30" y="180" width="120" height="64" as="geometry"/>
                </mxCell>
                <mxCell id="37" value="DRAW(renderer)&lt;br&gt;Called by the&lt;br&gt;renderer module.&lt;br&gt;Recieves renderer." style="html=1;" vertex="1" parent="20">
                    <mxGeometry x="30" y="300" width="120" height="64" as="geometry"/>
                </mxCell>
                <mxCell id="46" value="DATA&lt;br&gt;any variables specific to the object" style="rounded=0;whiteSpace=wrap;html=1;" vertex="1" parent="20">
                    <mxGeometry x="200" y="120" width="120" height="60" as="geometry"/>
                </mxCell>
                <mxCell id="47" value="FUNCTIONS&lt;br&gt;any functions specific to the object" style="rounded=0;whiteSpace=wrap;html=1;" vertex="1" parent="20">
                    <mxGeometry x="200" y="244" width="120" height="60" as="geometry"/>
                </mxCell>
                <mxCell id="38" style="edgeStyle=orthogonalEdgeStyle;rounded=0;orthogonalLoop=1;jettySize=auto;html=1;exitX=1;exitY=0.25;exitDx=0;exitDy=0;endArrow=none;endFill=0;startArrow=classicThin;startFill=1;" edge="1" parent="1" source="6">
                    <mxGeometry relative="1" as="geometry">
                        <mxPoint x="510" y="89" as="targetPoint"/>
                    </mxGeometry>
                </mxCell>
                <mxCell id="40" value="adds functions to the&lt;br&gt;input buffers" style="edgeLabel;html=1;align=center;verticalAlign=middle;resizable=0;points=[];" vertex="1" connectable="0" parent="38">
                    <mxGeometry x="0.0931" relative="1" as="geometry">
                        <mxPoint x="-0.83" y="-20.03" as="offset"/>
                    </mxGeometry>
                </mxCell>
                <mxCell id="39" style="edgeStyle=orthogonalEdgeStyle;rounded=0;orthogonalLoop=1;jettySize=auto;html=1;exitX=1;exitY=0.75;exitDx=0;exitDy=0;entryX=0.006;entryY=0.684;entryDx=0;entryDy=0;entryPerimeter=0;startArrow=none;startFill=0;endArrow=classicThin;endFill=1;" edge="1" parent="1" source="6" target="35">
                    <mxGeometry relative="1" as="geometry"/>
                </mxCell>
                <mxCell id="41" value="calls added functions" style="edgeLabel;html=1;align=center;verticalAlign=middle;resizable=0;points=[];" vertex="1" connectable="0" parent="39">
                    <mxGeometry x="0.0822" y="1" relative="1" as="geometry">
                        <mxPoint y="14.18" as="offset"/>
                    </mxGeometry>
                </mxCell>
                <mxCell id="42" style="edgeStyle=orthogonalEdgeStyle;rounded=0;orthogonalLoop=1;jettySize=auto;html=1;exitX=1;exitY=0.5;exitDx=0;exitDy=0;startArrow=none;startFill=0;endArrow=classicThin;endFill=1;" edge="1" parent="1" source="7">
                    <mxGeometry relative="1" as="geometry">
                        <mxPoint x="510" y="225" as="targetPoint"/>
                        <Array as="points">
                            <mxPoint x="420" y="225"/>
                            <mxPoint x="420" y="225"/>
                        </Array>
                    </mxGeometry>
                </mxCell>
                <mxCell id="43" value="step(deltatime)&lt;br&gt;trigger frame behaviours" style="text;html=1;strokeColor=none;fillColor=none;align=center;verticalAlign=middle;whiteSpace=wrap;rounded=0;" vertex="1" parent="1">
                    <mxGeometry x="405" y="240" width="40" height="20" as="geometry"/>
                </mxCell>
                <mxCell id="44" style="edgeStyle=orthogonalEdgeStyle;rounded=0;orthogonalLoop=1;jettySize=auto;html=1;exitX=1;exitY=0.5;exitDx=0;exitDy=0;startArrow=none;startFill=0;endArrow=classicThin;endFill=1;" edge="1" parent="1" source="8">
                    <mxGeometry relative="1" as="geometry">
                        <mxPoint x="510" y="341" as="targetPoint"/>
                    </mxGeometry>
                </mxCell>
                <mxCell id="45" value="draw(this)&lt;br&gt;activate draw logic" style="text;html=1;strokeColor=none;fillColor=none;align=center;verticalAlign=middle;whiteSpace=wrap;rounded=0;" vertex="1" parent="1">
                    <mxGeometry x="405" y="360" width="40" height="20" as="geometry"/>
                </mxCell>
            </root>
        </mxGraphModel>
    </diagram>
</mxfile>